<?xml version="1.0" encoding="iso-8859-1"?>
<!-- Generator: Adobe Illustrator 19.0.0, SVG Export Plug-In . SVG Version: 6.00 Build 0)  -->
<svg version="1.1" id="Capa_1" xmlns="http://www.w3.org/2000/svg" xmlns:xlink="http://www.w3.org/1999/xlink" x="0px" y="0px"
	 viewBox="0 0 489.581 489.581" style="enable-background:new 0 0 489.581 489.581;" xml:space="preserve">
<g>
	<path d="M452.47,181.956c-31.3-59.4-92.8-109.4-172-138.6c-14-3.3-22.9,1.8-27.1,14.6c-1,3.1-2.1,7.3-2.1,11.5
		c-24-9.4-49-13.6-74-16.7c-43.5-4.6-92.6-25.1-149-51.1c-12.1-5.6-28.3,3.5-28.1,19.8c7.1,57.1,35.5,103.7,83.4,140.7
		c2.7,66.4,36.3,113.8,113.6,134.5c67.3,20.4,123.9,52.9,169.9,96.9c21.9,24,32,51.4,36.5,77.1c3.1,18.3,18.2,18.7,18.8,18.8
		c8,1.1,17.7-5.2,20.8-13.6l22.9-70.9C500.57,333.256,497.47,258.956,452.47,181.956z M442.07,264.356c11,22.4,9,56.8-6.4,103.9
		c-14.7-64.8-58.2-171.9-185.4-218.6c-10.4-3.1-21.9,2.1-26.1,12.5c-3.1,10.4,2.1,21.9,12.5,26.1c94.6,35.3,135,111.1,152.2,167.1
		c-47.7-43.3-104-74.6-167.8-95.1c-55.8-11.8-85.6-38.3-94.9-94.9c0.3-11.8-3.7-22.6-12.5-32.3c-27-28.4-54.5-47.6-63.5-77.2
		c40.9,19.6,81.2,31.5,120.9,35.4c34.4,5.2,66.7,9.4,89.6,28.1c15.6,10.3,35.1-0.5,32.3-20.8c0-3.1-1-6.3-1-9.4
		C368.67,127.656,418.67,170.656,442.07,264.356z"/>
</g>
<g>
</g>
<g>
</g>
<g>
</g>
<g>
</g>
<g>
</g>
<g>
</g>
<g>
</g>
<g>
</g>
<g>
</g>
<g>
</g>
<g>
</g>
<g>
</g>
<g>
</g>
<g>
</g>
<g>
</g>
</svg>
